# AST/ASF file generated using VICON BodyLanguage
# -----------------------------------------------
:version 1.10
:name VICON
:units
  mass 1.0
  length 0.45
  angle deg
:documentation
   .ast/.asf automatically generated from VICON data using
   VICON BodyBuilder and BodyLanguage model FoxedUp or BRILLIANT.MOD
:root
   order TX TY TZ RX RY RZ
   axis XYZ
   position 0 0 0  
   orientation 0 0 0 
:bonedata
  begin
     id 1 
     name lhipjoint
     direction 0.692814 -0.645514 0.321437 
     length 2.38754 
     axis 0 0 0  XYZ
  end
  begin
     id 2 
     name lfemur
     direction 0.34202 -0.939693 0  
     length 6.41921  
     axis 0 0 20  XYZ
    dof rx ry rz
    limits (-160.0 20.0)
           (-70.0 70.0)
           (-60.0 70.0)
  end
  begin
     id 3 
     name ltibia
     direction 0.34202 -0.939693 0   
     length 6.98247   
     axis 0 0 20   XYZ
    dof rx
    limits (-10.0 170.0)
  end
  begin
     id 4 
     name lfoot
     direction 0.0947186 -0.260237 0.960888   
     length 1.83034   
     axis -90 7.62852e-016 20   XYZ
    dof rx rz
    limits (-45.0 90.0)
           (-70.0 20.0)
  end
  begin
     id 5 
     name ltoes
     direction 1.53538e-011 -4.21952e-011 1   
     length 0.920499   
     axis -90 7.62852e-016 20   XYZ
    dof rx
    limits (-90.0 20.0)
  end
  begin
     id 6 
     name rhipjoint
     direction -0.631686 -0.693949 0.345555   
     length 2.2209  
     axis 0 0 0  XYZ 
  end
  begin
     id 7 
     name rfemur
     direction -0.34202 -0.939693 0   
     length 6.49542   
     axis 0 0 -20   XYZ
    dof rx ry rz
    limits (-160.0 20.0)
           (-70.0 70.0)
           (-70.0 60.0)
  end
  begin
     id 8 
     name rtibia
     direction -0.34202 -0.939693 0   
     length 7.21712   
     axis 0 0 -20   XYZ
    dof rx
    limits (-10.0 170.0)
 end
 begin
     id 9 
     name rfoot
     direction -0.0825378 -0.226771 0.970444   
     length 1.89724  
     axis -90 -7.62852e-016 -20   XYZ
    dof rx rz
    limits (-45.0 90.0)
           (-20.0 70.0)
  end
  begin
     id 10 
     name rtoes
     direction -1.53515e-011 -4.22016e-011 1   
     length 0.955868   
     axis -90 -7.62852e-016 -20   XYZ
    dof rx
    limits (-90.0 20.0)
  end
  begin
     id 11 
     name lowerback
     direction -0.0104711 0.984802 -0.173368   
     length 1.84931   
     axis 0 0 0   XYZ
    dof rx ry rz
    limits (-20.0 45.0)
           (-30.0 30.0)
           (-30.0 30.0)
  end
  begin
     id 12 
     name upperback
     direction -0.00286433 0.999996 -0.000382853   
     length 1.85768   
     axis 0 0 0   XYZ
    dof rx ry rz
    limits (-20.0 45.0)
           (-30.0 30.0)
           (-30.0 30.0)
  end
  begin
     id 13 
     name thorax
     direction 0.00167534 0.996793 0.0800069   
     length 1.92   
     axis 0 0 0   XYZ
    dof rx ry rz
    limits (-20.0 45.0)
           (-30.0 30.0)
           (-30.0 30.0)
  end
  begin
     id 14 
     name lowerneck
     direction -0.0672491 0.995415 0.068018   
     length 1.58923   
     axis 0 0 0   XYZ
    dof rx ry rz
    limits (-20.0 45.0)
           (-30.0 30.0)
           (-30.0 30.0)
  end
  begin
     id 15 
     name upperneck
     direction 0.0958019 0.982476 -0.159884   
     length 1.60189   
     axis 0 0 0   XYZ
    dof rx ry rz
    limits (-20.0 45.0)
           (-30.0 30.0)
           (-30.0 30.0)
  end
  begin
     id 16
     name head
     direction 0.032989 0.997338 -0.0650226  
     length 1.61681  
     axis 0 0 0   XYZ
    dof rx ry rz
    limits (-20.0 45.0)
           (-30.0 30.0)
           (-30.0 30.0)
  end
  begin
     id 17 
     name lclavicle
     direction 0.954279 0.298875 -0.00496069  
     length 2.99449  
     axis 0 0 0   XYZ
    dof ry rz
    limits (-20.0 10.0)
           (0.0 20.0)
  end
  begin
     id 18 
     name lhumerus
     direction 1 -4.48985e-011 -4.2057e-027   
     length 4.79185   
     axis 180 -30 -90   XYZ
    dof rx ry rz
    limits (-60.0 90.0)
           (-90.0 90.0)
           (-90.0 90.0)
  end
  begin
     id 19
     name lradius
     direction 1 -4.48945e-011 1.15441e-028   
     length 2.65553   
     axis 180 -30 -90   XYZ
    dof rx
    limits (-10.0 170.0)
  end
  begin
     id 20
     name lwrist
     direction 1 -4.4899e-011 4.8894e-028   
     length 1.32777   
     axis -2.56392e-016 90 90   XYZ
    dof ry
    limits (-180.0 0.0)
 end
  begin
     id 21 
     name lhand
     direction 1 -4.48908e-011 9.7788e-028   
     length 0.743904   
     axis -6.23971e-016 90 90   XYZ
    dof rx rz
    limits (-90.0 90.0)
           (-45.0 45.0)
  end
  begin
     id 22 
     name lfingers
     direction 1 -4.49068e-011 1.95576e-027   
     length 0.599754   
     axis -1.24794e-015 90 90   XYZ
    dof rx
    limits (0.0 90.0)
  end
  begin
     id 23
     name lthumb
     direction 0.707107 -6.34883e-011 0.707107   
     length 0.861131   
     axis -90 45 2.85299e-015   XYZ
    dof rx rz
    limits (-45.0 45.0)
           (-45.0 45.0)
  end
  begin
     id 24 
     name rclavicle
     direction -0.957921 0.286916 0.00811568   
     length 3.06817  
     axis 0 0 0   XYZ 
    dof ry rz
    limits (-10.0 20.0)
           (-20.0 0.0)
  end
  begin
     id 25 
     name rhumerus
     direction -1 -4.48971e-011 -3.07942e-027  
     length 4.77254   
     axis 180 30 90   XYZ
    dof rx ry rz
    limits (-90.0 60.0)
           (-90.0 90.0)
           (-90.0 90.0)
  end
  begin
     id 26 
     name rradius
     direction -1 -4.48957e-011 -9.6815e-028   
     length 2.75995   
     axis 180 30 90   XYZ
    dof rx
    limits (-10.0 170.0)
  end
  begin
     id 27 
     name rwrist
     direction -1 -4.48979e-011 4.8894e-028   
     length 1.37997   
     axis -2.56392e-016 -90 -90   XYZ
    dof ry
    limits (-180.0 0.0)
  end
  begin
     id 28
     name rhand
     direction -1 -4.48906e-011 9.7788e-028   
     length 0.701619   
     axis -6.23971e-016 -90 -90   XYZ
    dof rx rz
    limits (-90.0 90.0)
           (-45.0 45.0)
  end
  begin
     id 29
     name rfingers
     direction -1 -4.49018e-011 1.95576e-027   
     length 0.565663   
     axis -1.24794e-015 -90 -90   XYZ
    dof rx
    limits (0.0 90.0)
  end
  begin
     id 30
     name rthumb
     direction -0.707107 -6.34881e-011 0.707107   
     length 0.812183   
     axis -90 -45 -2.85299e-015   XYZ
    dof rx rz
    limits (-45.0 45.0)
           (-45.0 45.0)
  end
:hierarchy
  begin
    root lhipjoint rhipjoint lowerback
    lhipjoint lfemur
    lfemur ltibia
    ltibia lfoot
    lfoot ltoes
    rhipjoint rfemur
    rfemur rtibia
    rtibia rfoot
    rfoot rtoes
    lowerback upperback
    upperback thorax
    thorax lowerneck lclavicle rclavicle
    lowerneck upperneck
    upperneck head
    lclavicle lhumerus
    lhumerus lradius
    lradius lwrist
    lwrist lhand lthumb
    lhand lfingers
    rclavicle rhumerus
    rhumerus rradius
    rradius rwrist
    rwrist rhand rthumb
    rhand rfingers
  end

#!OML:ASF F:\VICON\USERDATA\INSTALL\rory3\rory3.ASF
:FULLY-SPECIFIED
:DEGREES
138
root 0.348267 16.1519 -0.253232 1.44787 -0.711977 -0.688539
lowerback 14.0635 0.394283 -1.09671
upperback 0.744526 0.357555 0.134699
thorax -7.11486 0.211457 0.692334
lowerneck -9.31939 -9.7316 -14.6615
upperneck 16.3435 -12.8844 10.4606
head 8.24335 -6.21088 4.43895
rclavicle -6.95746e-016 -6.95746e-016
rhumerus -37.06 4.90435 -78.818
rradius 46.1199
rwrist 5.43068
rhand -10.8006 11.6747
rfingers 7.12502
rthumb 15.2125 -17.746
lclavicle -6.95746e-016 -6.95746e-016
lhumerus -30.845 5.0173 78.906
lradius 32.2267
lwrist 7.99892
lhand -8.76643 10.0949
lfingers 7.12502
lthumb 17.1713 39.3562
rfemur -3.31883 13.1742 17.2329
rtibia 16.1926
rfoot -10.1703 -15.0603
rtoes -14.6892
lfemur 0.0295534 -11.9871 -16.6169
ltibia 9.40883
lfoot -7.7619 10.68
ltoes -12.8214
139
root 0.347007 16.1519 -0.265133 1.49722 -0.692 -0.609924
lowerback 14.2089 0.405874 -1.16114
upperback 0.720387 0.359485 0.119249
thorax -7.22241 0.214875 0.711426
lowerneck -9.37081 -9.72715 -14.6792
upperneck 16.3892 -12.8682 10.4442
head 8.26573 -6.20361 4.43628
rclavicle -6.80837e-015 6.4605e-015
rhumerus -37.2782 4.98608 -78.8175
rradius 46.3106
rwrist 5.55079
rhand -10.7107 11.7131
rfingers 7.12502
rthumb 15.2992 -17.701
lclavicle -6.80837e-015 6.4605e-015
lhumerus -30.9979 5.08122 78.8286
lradius 32.287
lwrist 7.99407
lhand -8.50931 10.3871
lfingers 7.12502
lthumb 17.4187 39.6266
rfemur -3.54371 13.2272 17.1296
rtibia 16.4124
rfoot -10.1806 -15.1469
rtoes -14.778
lfemur -0.202857 -12.0061 -16.6782
ltibia 9.63662
lfoot -7.8088 10.7065
ltoes -12.7997
140
root 0.346822 16.1516 -0.275384 1.55967 -0.677597 -0.573494
lowerback 14.2818 0.416026 -1.15278
upperback 0.736668 0.372396 0.105949
thorax -7.24594 0.220673 0.689715
lowerneck -9.47382 -9.74619 -14.6717
upperneck 16.3998 -12.8788 10.4293
head 8.28764 -6.20557 4.42407
rclavicle -1.44119e-015 1.49089e-015
rhumerus -37.4288 4.94228 -78.7683
rradius 46.5245
rwrist 5.73362
rhand -10.4494 11.6341
rfingers 7.12502
rthumb 15.5508 -17.7606
lclavicle -1.44119e-015 1.49089e-015
lhumerus -31.1369 4.96084 78.8309
lradius 32.444
lwrist 8.08544
lhand -8.42512 10.8555
lfingers 7.12502
lthumb 17.4997 40.0879
rfemur -3.76955 13.2348 17.0577
rtibia 16.6111
rfoot -10.2393 -15.1314
rtoes -14.5577
lfemur -0.441144 -12.0177 -16.6905
ltibia 9.85056
lfoot -7.90009 10.6932
ltoes -12.8986
141
root 0.347402 16.1508 -0.286221 1.61751 -0.668568 -0.614993
lowerback 14.3787 0.408435 -1.04714
upperback 0.738932 0.378417 0.107915
thorax -7.2971 0.220338 0.630387
lowerneck -9.44266 -9.73307 -14.7438
upperneck 16.2833 -12.8629 10.5308
head 8.25327 -6.19533 4.47312
rclavicle 6.70898e-016 1.78906e-015
rhumerus -37.5993 4.89133 -78.7268
rradius 46.8007
rwrist 6.01492
rhand -10.1663 11.4815
rfingers 7.12502
rthumb 15.8235 -17.8918
lclavicle 6.70898e-016 1.78906e-015
lhumerus -31.2408 4.82334 78.8381
lradius 32.4838
lwrist 8.07463
lhand -8.42006 11.1994
lfingers 7.12502
lthumb 17.5046 40.4313
rfemur -3.97716 13.2328 17.0706
rtibia 16.7809
rfoot -10.3139 -15.102
rtoes -14.3381
lfemur -0.667556 -12.022 -16.6192
ltibia 10.0638
lfoot -7.93531 10.659
ltoes -13.0845
142
root 0.347528 16.1489 -0.297638 1.63643 -0.622248 -0.61478
lowerback 14.486 0.377329 -1.01173
upperback 0.765032 0.342379 0.114643
thorax -7.32828 0.201797 0.624517
lowerneck -9.4572 -9.69297 -14.7537
upperneck 16.2072 -12.7985 10.5417
head 8.2232 -6.1641 4.48698
rclavicle 7.45443e-017 2.18663e-015
rhumerus -37.7259 4.90044 -78.7121
rradius 47.0241
rwrist 6.27197
rhand -10.0831 11.5097
rfingers 7.12502
rthumb 15.9036 -17.8572
lclavicle 7.45443e-017 2.18663e-015
lhumerus -31.3184 4.84035 78.8078
lradius 32.4904
lwrist 8.04528
lhand -8.38039 11.2909
lfingers 7.12502
lthumb 17.5428 40.5194
rfemur -4.11069 13.2052 17.064
rtibia 16.9327
rfoot -10.3507 -15.1354
rtoes -14.3311
lfemur -0.870975 -12.0507 -16.5985
ltibia 10.2894
lfoot -7.94297 10.5819
ltoes -12.7829
143
root 0.348113 16.1476 -0.308762 1.67656 -0.567457 -0.538202
lowerback 14.5429 0.372744 -1.06433
upperback 0.801699 0.327758 0.122104
thorax -7.32084 0.196393 0.665132
lowerneck -9.54088 -9.69772 -14.8316
upperneck 16.2012 -12.7835 10.5647
head 8.24131 -6.15658 4.50537
rclavicle 2.73329e-015 -3.57812e-015
rhumerus -37.7982 4.85905 -78.6341
rradius 47.1615
rwrist 6.49349
rhand -10.058 11.61
rfingers 7.12502
rthumb 15.9278 -17.7551
lclavicle 2.73329e-015 -3.57812e-015
lhumerus -31.4048 4.74053 78.8676
lradius 32.596
lwrist 8.10964
lhand -8.43624 11.5719
lfingers 7.12502
lthumb 17.4891 40.8051
rfemur -4.23868 13.1702 16.9627
rtibia 17.0605
rfoot -10.401 -15.1508
rtoes -14.2806
lfemur -1.11788 -12.0476 -16.659
ltibia 10.547
lfoot -7.9696 10.512
ltoes -12.9157
144
root 0.347428 16.1478 -0.322077 1.71537 -0.52824 -0.499354
lowerback 14.6557 0.372483 -1.10858
upperback 0.825489 0.320898 0.148596
thorax -7.35865 0.195066 0.719479
lowerneck -9.64101 -9.71585 -14.9289
upperneck 16.1987 -12.7837 10.5979
head 8.26776 -6.15599 4.52728
rclavicle 3.97569e-016 2.18663e-015
rhumerus -37.8507 4.86028 -78.572
rradius 47.2321
rwrist 6.71437
rhand -10.133 11.7448
rfingers 7.12502
rthumb 15.8555 -17.626
lclavicle 3.97569e-016 2.18663e-015
lhumerus -31.5028 4.82772 78.8754
lradius 32.7605
lwrist 7.93447
lhand -8.40777 11.8227
lfingers 7.12502
lthumb 17.5165 41.0536
rfemur -4.39993 13.1923 16.9013
rtibia 17.1921
rfoot -10.4309 -15.1527
rtoes -14.1686
lfemur -1.36364 -12.0221 -16.6745
ltibia 10.7964
lfoot -8.00816 10.5064
ltoes -13.3279
145
root 0.346631 16.147 -0.338384 1.72057 -0.463857 -0.53777
lowerback 14.8686 0.353674 -1.02782
upperback 0.824901 0.308271 0.165519
thorax -7.47765 0.187096 0.693768
lowerneck -9.65736 -9.72713 -14.9702
upperneck 16.1579 -12.7883 10.6091
head 8.2615 -6.15899 4.53598
rclavicle 4.19933e-015 -3.37934e-015
rhumerus -37.9584 4.74129 -78.52
rradius 47.3147
rwrist 7.03968
rhand -10.0565 11.9094
rfingers 7.12502
rthumb 15.9292 -17.4555
lclavicle 4.19933e-015 -3.37934e-015
lhumerus -31.6036 4.93319 78.8213
lradius 32.8408
lwrist 7.69552
lhand -8.24683 11.7044
lfingers 7.12502
lthumb 17.6713 40.9214
rfemur -4.54869 13.2066 16.9348
rtibia 17.3344
rfoot -10.4595 -15.174
rtoes -14.1554
lfemur -1.59712 -12.0269 -16.5955
ltibia 11.0555
lfoot -8.05084 10.4382
ltoes -13.3692
146
root 0.345865 16.1451 -0.351798 1.71238 -0.41926 -0.577824
lowerback 15.053 0.333078 -0.960764
upperback 0.837348 0.291015 0.173512
thorax -7.56668 0.176931 0.667475
lowerneck -9.72237 -9.71903 -14.855
upperneck 16.1454 -12.7608 10.4848
head 8.24842 -6.14685 4.4772
rclavicle 8.94531e-016 -6.06293e-015
rhumerus -38.0651 4.66065 -78.5008
rradius 47.4893
rwrist 7.27177
rhand -9.86457 11.9504
rfingers 7.12502
rthumb 16.1141 -17.3997
lclavicle 8.94531e-016 -6.06293e-015
lhumerus -31.7162 5.02895 78.7362
lradius 32.9751
lwrist 7.50649
lhand -8.06649 11.7652
lfingers 7.12502
lthumb 17.8449 40.9665
rfemur -4.66178 13.1314 16.973
rtibia 17.4854
rfoot -10.4785 -15.161
rtoes -14.358
lfemur -1.77604 -12.0686 -16.5354
ltibia 11.3074
lfoot -8.08188 10.3813
ltoes -13.3468
147
root 0.34372 16.1427 -0.36347 1.7231 -0.409654 -0.57315
lowerback 15.172 0.310979 -0.977295
upperback 0.861222 0.258653 0.184645
thorax -7.60696 0.162101 0.695398
lowerneck -9.81283 -9.69256 -14.8235
upperneck 16.1216 -12.7049 10.4392
head 8.24365 -6.11904 4.46115
rclavicle 3.14328e-015 2.98177e-016
rhumerus -38.186 4.72685 -78.5094
rradius 47.8086
rwrist 7.29692
rhand -9.69113 11.6916
rfingers 7.12502
rthumb 16.2811 -17.6448
lclavicle 3.14328e-015 2.98177e-016
lhumerus -31.8052 5.13268 78.657
lradius 33.0828
lwrist 7.3755
lhand -7.96143 11.9389
lfingers 7.12502
lthumb 17.946 41.1309
rfemur -4.7915 13.1335 16.9667
rtibia 17.6487
rfoot -10.5556 -15.2053
rtoes -14.254
lfemur -1.94662 -12.0484 -16.5153
ltibia 11.5137
lfoot -8.06506 10.3393
ltoes -13.3198
148
root 0.343165 16.1406 -0.373861 1.72381 -0.413859 -0.499099
lowerback 15.2872 0.309048 -1.03909
upperback 0.878708 0.243535 0.175429
thorax -7.65243 0.156882 0.723661
lowerneck -9.84077 -9.66761 -14.8357
upperneck 16.0544 -12.6564 10.4308
head 8.21994 -6.09647 4.46597
rclavicle -5.41688e-015 9.93923e-017
rhumerus -38.3597 4.80731 -78.4988
rradius 48.126
rwrist 7.31376
rhand -9.60258 11.5353
rfingers 7.12502
rthumb 16.3663 -17.7942
lclavicle -5.41688e-015 9.93923e-017
lhumerus -31.9603 5.10062 78.6296
lradius 33.3036
lwrist 7.44435
lhand -7.9948 12.001
lfingers 7.12502
lthumb 17.9138 41.1959
rfemur -4.92131 13.0988 16.8786
rtibia 17.8268
rfoot -10.5242 -15.2138
rtoes -14.7702
lfemur -2.08947 -12.0133 -16.5876
ltibia 11.6945
lfoot -8.07924 10.337
ltoes -13.3814
149
root 0.344094 16.1387 -0.38376 1.74046 -0.377285 -0.390338
lowerback 15.3866 0.327855 -1.10297
upperback 0.879283 0.253901 0.146681
thorax -7.70774 0.163875 0.726767
lowerneck -9.78301 -9.67215 -14.7967
upperneck 15.9603 -12.6611 10.3891
head 8.17339 -6.10164 4.44745
rclavicle -6.44808e-015 -9.93923e-017
rhumerus -38.6117 4.78644 -78.4547
rradius 48.4387
rwrist 7.35178
rhand -9.73649 11.607
rfingers 7.12502
rthumb 16.2374 -17.7331
lclavicle -6.44808e-015 -9.93923e-017
lhumerus -32.1516 5.02684 78.6309
lradius 33.6089
lwrist 7.45602
lhand -8.00081 11.9444
lfingers 7.12502
lthumb 17.9081 41.1399
rfemur -5.06265 12.9998 16.7333
rtibia 17.9868
rfoot -10.5031 -15.1575
rtoes -14.8766
lfemur -2.28488 -12.0576 -16.7059
ltibia 11.9397
lfoot -8.123 10.345
ltoes -13.6037
150
root 0.345901 16.1373 -0.395039 1.76549 -0.340759 -0.391862
lowerback 15.4995 0.315775 -1.05015
upperback 0.873192 0.246138 0.151254
thorax -7.77694 0.158731 0.703172
lowerneck -9.73006 -9.6533 -14.7596
upperneck 15.8386 -12.6291 10.3426
head 8.11341 -6.08982 4.43274
rclavicle 1.41634e-015 1.09332e-015
rhumerus -38.8277 4.75385 -78.384
rradius 48.816
rwrist 7.49076
rhand -9.81927 11.7214
rfingers 7.12502
rthumb 16.1577 -17.6251
lclavicle 1.41634e-015 1.09332e-015
lhumerus -32.3778 5.07918 78.5687
lradius 33.9066
lwrist 7.40552
lhand -7.9266 11.9167
lfingers 7.12502
lthumb 17.9795 41.1056
rfemur -5.21648 12.9104 16.6983
rtibia 18.1269
rfoot -10.5516 -15.0815
rtoes -14.555
lfemur -2.53171 -12.0485 -16.6972
ltibia 12.2433
lfoot -8.14661 10.3056
ltoes -13.6328
151
root 0.34631 16.1361 -0.410498 1.79691 -0.327087 -0.578257
lowerback 15.6898 0.295404 -0.815894
upperback 0.835963 0.261951 0.194455
thorax -7.92286 0.159603 0.612594
lowerneck -9.67728 -9.64121 -14.8069
upperneck 15.775 -12.6138 10.3804
head 8.08674 -6.08407 4.45717
rclavicle -5.05658e-015 2.28602e-015
rhumerus -39.0961 4.68766 -78.3373
rradius 49.2532
rwrist 7.6995
rhand -9.8294 11.8908
rfingers 7.12502
rthumb 16.1479 -17.4565
lclavicle -5.05658e-015 2.28602e-015
lhumerus -32.6017 5.07035 78.5034
lradius 34.1951
lwrist 7.35812
lhand -7.85293 11.999
lfingers 7.12502
lthumb 18.0503 41.1815
rfemur -5.42074 12.869 16.8759
rtibia 18.275
rfoot -10.4736 -15.0712
rtoes -14.769
lfemur -2.80231 -12.0693 -16.4645
ltibia 12.5528
lfoot -8.24043 10.2843
ltoes -13.3627
152
root 0.345084 16.1352 -0.427117 1.84327 -0.281524 -0.686006
lowerback 15.8726 0.259814 -0.697695
upperback 0.80122 0.238654 0.244084
thorax -8.0619 0.145634 0.603522
lowerneck -9.67064 -9.63859 -14.8678
upperneck 15.7353 -12.5972 10.3804
head 8.07446 -6.07985 4.46914
rclavicle 1.77664e-015 -9.93923e-016
rhumerus -39.3786 4.86225 -78.3199
rradius 49.8034
rwrist 7.64054
rhand -9.62738 11.9384
rfingers 7.12502
rthumb 16.3424 -17.3931
lclavicle 1.77664e-015 -9.93923e-016
lhumerus -32.7588 5.15573 78.4489
lradius 34.4179
lwrist 7.22287
lhand -7.81985 11.929
lfingers 7.12502
lthumb 18.0822 41.1084
rfemur -5.6288 12.8651 16.983
rtibia 18.4436
rfoot -10.4171 -15.1261
rtoes -15.0623
lfemur -3.10114 -12.0861 -16.3081
ltibia 12.8585
lfoot -8.31216 10.2621
ltoes -13.4417
